<svg width="48" height="48" viewBox="0 0 48 48" fill="none" xmlns="http://www.w3.org/2000/svg">
<g clip-path="url(#clip0_319_1523)">
<path d="M33.7545 10.6238L19.9919 42.2053H36.6519C37.0519 42.2053 37.3762 41.881 37.3762 41.4809V11.3481C37.3762 10.9481 37.0519 10.6238 36.6519 10.6238H33.7545Z" fill="#FFB757"/>
<path d="M5.79474 11.3481V22.1167H25.7867L34.4788 14.2455V11.3481C34.4788 10.9481 34.1545 10.6238 33.7545 10.6238H6.51908C6.11905 10.6238 5.79474 10.9481 5.79474 11.3481Z" fill="#FFD15E"/>
<path d="M30.8571 13.5212L17.0945 45.1027H33.7545C34.1545 45.1027 34.4788 44.7784 34.4788 44.3784V14.2456C34.4788 13.8456 34.1545 13.5212 33.7545 13.5212H30.8571Z" fill="#FF7E82"/>
<path d="M2.8974 14.2456V25.0142H22.8894L31.5815 17.143V14.2456C31.5815 13.8456 31.2572 13.5212 30.8572 13.5212H3.62175C3.22171 13.5212 2.8974 13.8456 2.8974 14.2456Z" fill="#FF9B6D"/>
<path d="M17.488 46.3027L1.69727 30.512H17.488V46.3027Z" fill="#FFB757"/>
<path d="M27.9598 16.4185L25.7867 32.2092L27.9598 47.9999H30.8572C31.2572 47.9999 31.5815 47.6756 31.5815 47.2756V17.1428C31.5815 16.7428 31.2572 16.4185 30.8572 16.4185H27.9598Z" fill="#FFB757"/>
<path d="M0 17.1428V26.4144C0 29.6148 2.59441 32.2092 5.79477 32.2092H15.0664C15.4664 32.2092 15.7907 32.5335 15.7907 32.9335V42.2052C15.7907 45.4055 18.3852 47.9999 21.5855 47.9999H27.9598C28.3598 47.9999 28.6841 47.6756 28.6841 47.2756V17.1428C28.6841 16.7428 28.3598 16.4185 27.9598 16.4185H0.724346C0.324314 16.4185 0 16.7428 0 17.1428Z" fill="#FFD15E"/>
<path d="M47.0828 4.447C46.2312 4.1111 45.4746 3.59546 44.8549 2.94751C44.8529 2.94799 39.3176 8.40444 39.3176 8.40444C39.9839 9.03134 40.5144 9.80224 40.8576 10.6722C41.3399 11.8951 43.0706 11.8951 43.5529 10.6722C44.1898 9.05742 45.468 7.77919 47.0828 7.14234C48.3058 6.66003 48.3058 4.92932 47.0828 4.447Z" fill="#FFE9B4"/>
<path d="M41.5579 8.04249C42.2444 6.83457 43.2451 5.83391 44.453 5.14752C45.2645 4.68635 45.4923 3.62803 44.8529 2.94811C44.2996 2.36699 43.8539 1.68041 43.553 0.917239C43.0707 -0.305746 41.34 -0.305746 40.8576 0.917239C40.2208 2.53205 38.9426 3.81028 37.3278 4.44712C36.1049 4.92944 36.1049 6.66014 37.3278 7.14246C38.0727 7.43626 38.7446 7.86787 39.3162 8.40466C39.9975 9.04392 41.0968 8.85395 41.5579 8.04249Z" fill="#FFEFE0"/>
</g>
<defs>
<clipPath id="clip0_319_1523">
<rect width="48" height="48" fill="white"/>
</clipPath>
</defs>
</svg>
