<svg width="48" height="48" viewBox="0 0 48 48" fill="none" xmlns="http://www.w3.org/2000/svg">
<path d="M14.3808 0H6.87634C3.07864 0 0 3.07864 0 6.87634V14.3808C0 18.1785 3.07864 21.2571 6.87634 21.2571H14.3808C18.1785 21.2571 21.2571 18.1785 21.2571 14.3808V6.87634C21.2571 3.07864 18.1785 0 14.3808 0Z" fill="#BAD7FF"/>
<path d="M14.3808 26.7427H6.87634C3.07864 26.7427 0 29.8213 0 33.619V41.1235C0 44.9212 3.07864 47.9998 6.87634 47.9998H14.3808C18.1785 47.9998 21.2571 44.9212 21.2571 41.1235V33.619C21.2571 29.8213 18.1785 26.7427 14.3808 26.7427Z" fill="#BAD7FF"/>
<path d="M41.1237 26.7427H33.6193C29.8216 26.7427 26.7429 29.8213 26.7429 33.619V41.1235C26.7429 44.9212 29.8216 47.9998 33.6193 47.9998H41.1237C44.9214 47.9998 48.0001 44.9212 48.0001 41.1235V33.619C48.0001 29.8213 44.9214 26.7427 41.1237 26.7427Z" fill="#BAD7FF"/>
<path d="M41.1237 0H33.6192C29.8215 0 26.7429 3.07864 26.7429 6.87634V14.3808C26.7429 18.1785 29.8215 21.2571 33.6192 21.2571H41.1237C44.9214 21.2571 48 18.1785 48 14.3808V6.87634C48 3.07864 44.9214 0 41.1237 0Z" fill="#549BFF"/>
</svg>
