<svg width="53" height="49" viewBox="0 0 53 49" fill="none" xmlns="http://www.w3.org/2000/svg">
<path fill-rule="evenodd" clip-rule="evenodd" d="M41.4883 31.2314L38.3662 31.1302V24.1561L41.4883 24.0476V31.2314Z" fill="#B4D2D7"/>
<path fill-rule="evenodd" clip-rule="evenodd" d="M41.4883 31.2314L38.3662 31.1302V31.0989L40.1128 31.1552V24.0956L41.4883 24.0476V31.2314Z" fill="#9BB9C3"/>
<path fill-rule="evenodd" clip-rule="evenodd" d="M37.4186 30.1746H42.4354C42.5738 30.1746 42.6875 30.2851 42.6875 30.4197V46.3156C42.6875 47.7918 41.4451 48.9999 39.927 48.9999C38.4089 48.9999 37.1665 47.7918 37.1665 46.3156V30.4197C37.1665 30.2841 37.2792 30.1746 37.4186 30.1746Z" fill="#8D9CA8"/>
<path fill-rule="evenodd" clip-rule="evenodd" d="M41.4903 30.1746H42.4355C42.5739 30.1746 42.6876 30.2851 42.6876 30.4197V46.3156C42.6876 47.7918 41.4452 48.9999 39.9271 48.9999C39.7651 48.9999 39.6074 48.9863 39.4529 48.9602C40.7478 48.7401 41.7392 47.6353 41.7392 46.3156V30.4197C41.7402 30.2851 41.6276 30.1756 41.4903 30.1746Z" fill="#7A8C98"/>
<path fill-rule="evenodd" clip-rule="evenodd" d="M42.4354 30.1746C42.5738 30.1746 42.6875 30.2851 42.6875 30.4197V33.6319H37.1665V30.4197C37.1665 30.2851 37.2802 30.1746 37.4186 30.1746H42.4354Z" fill="#7A8C98"/>
<path fill-rule="evenodd" clip-rule="evenodd" d="M42.4354 30.1746C42.5738 30.1746 42.6876 30.2851 42.6876 30.4197V33.6319H41.7402V30.4197C41.7402 30.2851 41.6286 30.1756 41.4902 30.1746H42.4354Z" fill="#596C76"/>
<path d="M39.9271 25.4238C47.1471 25.4238 53 19.7325 53 12.7119C53 5.69131 47.1471 0 39.9271 0C32.7071 0 26.8541 5.69131 26.8541 12.7119C26.8541 19.7325 32.7071 25.4238 39.9271 25.4238Z" fill="#64B5F6"/>
<path fill-rule="evenodd" clip-rule="evenodd" d="M47.6914 2.48389C50.9111 4.79988 53 8.51799 53 12.7118C53 19.7328 47.1474 25.4237 39.927 25.4237C36.2395 25.4237 32.9083 23.9381 30.5319 21.5502C32.7034 23.1109 35.3888 24.0341 38.2962 24.0341C45.5167 24.0341 51.3692 18.3432 51.3692 11.3222C51.3692 7.88788 49.967 4.77171 47.6914 2.48389Z" fill="#42A5F5"/>
<path d="M49.5499 13.035C49.7258 7.85698 45.552 3.52073 40.2276 3.3497C34.9031 3.17868 30.4441 7.23764 30.2682 12.4156C30.0923 17.5937 34.2661 21.9299 39.5905 22.1009C44.915 22.272 49.374 18.213 49.5499 13.035Z" fill="#E6F8FF"/>
<path fill-rule="evenodd" clip-rule="evenodd" d="M39.9272 3.3269C42.9066 3.3269 45.5695 4.6393 47.3397 6.70179C45.666 5.34349 43.5106 4.52559 41.16 4.52559C35.8299 4.52559 31.5095 8.72672 31.5095 13.9095C31.5095 16.1953 32.3506 18.2912 33.7475 19.9186C31.6264 18.1973 30.2767 15.6069 30.2767 12.7109C30.2757 7.52908 34.5972 3.3269 39.9272 3.3269Z" fill="#D0F1FF"/>
<path fill-rule="evenodd" clip-rule="evenodd" d="M3.34411 34.2483C3.05551 34.6124 2.518 34.6792 2.14357 34.3986C1.76913 34.1179 1.70047 33.5953 1.98907 33.2312L11.3038 21.4551C11.5848 21.1014 12.1009 21.0284 12.4721 21.2829L21.1592 26.9436L29.9771 17.5544C30.0415 17.4855 30.1155 17.4292 30.196 17.3864L38.1342 12.3152L36.4819 12.1953C36.0099 12.1608 35.6558 11.7613 35.6912 11.3022C35.7266 10.8432 36.1375 10.499 36.6096 10.5334L40.5299 10.8182C41.0019 10.8526 41.356 11.2522 41.3206 11.7112C41.3163 11.7644 41.3077 11.8155 41.2938 11.8656L40.4945 15.5597C40.3979 16.0094 39.9452 16.2983 39.4817 16.2055C39.0193 16.1116 38.7221 15.6713 38.8176 15.2207L39.1577 13.6506L31.1766 18.7489L21.9295 28.5961L21.9284 28.595C21.6484 28.8955 21.1763 28.9591 20.8191 28.7265L12.1696 23.0909L3.34411 34.2483Z" fill="#FFD6BD"/>
<path fill-rule="evenodd" clip-rule="evenodd" d="M0.461335 39.9646H4.87299C5.12726 39.9646 5.33432 40.1659 5.33432 40.4132V48.5505C5.33432 48.7977 5.12726 48.9991 4.87299 48.9991H0.461335C0.207065 48.9991 0 48.7977 0 48.5505V40.4132C0 40.1659 0.207065 39.9646 0.461335 39.9646Z" fill="#8D9CA8"/>
<path fill-rule="evenodd" clip-rule="evenodd" d="M4.07048 39.9646H4.87299C5.12726 39.9646 5.33432 40.1659 5.33432 40.4132V48.5515C5.33432 48.7988 5.12726 49.0001 4.87299 49.0001H0.461335C0.207065 49.0001 0 48.7988 0 48.5515V47.7712H3.60914C3.86342 47.7712 4.07048 47.5698 4.07048 47.3226V39.9646Z" fill="#7A8C98"/>
<path fill-rule="evenodd" clip-rule="evenodd" d="M9.77616 29.9514H14.1878C14.4421 29.9514 14.6491 30.1528 14.6491 30.4V48.5503C14.6491 48.7976 14.4421 48.9989 14.1878 48.9989H9.77616C9.52188 48.9989 9.31482 48.7976 9.31482 48.5503V30.4C9.31482 30.1528 9.52188 29.9514 9.77616 29.9514Z" fill="#FC685B"/>
<path fill-rule="evenodd" clip-rule="evenodd" d="M13.3853 29.9514H14.1878C14.4421 29.9514 14.6491 30.1528 14.6491 30.4V48.5503C14.6491 48.7976 14.4421 48.9989 14.1878 48.9989H9.77616C9.52188 48.9989 9.31482 48.7976 9.31482 48.5503V47.77H12.924C13.1782 47.77 13.3853 47.5686 13.3853 47.3214V29.9514Z" fill="#F35244"/>
<path fill-rule="evenodd" clip-rule="evenodd" d="M19.092 34.2581H23.5036C23.7579 34.2581 23.9649 34.4594 23.9649 34.7066V48.5515C23.9649 48.7988 23.7579 49.0001 23.5036 49.0001H19.092C18.8377 49.0001 18.6306 48.7988 18.6306 48.5515V34.7066C18.6306 34.4594 18.8377 34.2581 19.092 34.2581Z" fill="#FFDA2D"/>
<path fill-rule="evenodd" clip-rule="evenodd" d="M22.6999 34.2581H23.5024C23.7567 34.2581 23.9637 34.4594 23.9637 34.7066V48.5515C23.9637 48.7988 23.7567 49.0001 23.5024 49.0001H19.0907C18.8365 49.0001 18.6294 48.7988 18.6294 48.5515V47.7712H22.2385C22.4928 47.7712 22.6999 47.5698 22.6999 47.3226V34.2581Z" fill="#FFC700"/>
<path fill-rule="evenodd" clip-rule="evenodd" d="M28.4066 26.4233H32.8183C33.0726 26.4233 33.2796 26.6247 33.2796 26.8719V48.5505C33.2796 48.7977 33.0726 48.9991 32.8183 48.9991H28.4066C28.1524 48.9991 27.9453 48.7977 27.9453 48.5505V26.8719C27.9453 26.6247 28.1524 26.4233 28.4066 26.4233Z" fill="#72D561"/>
<path fill-rule="evenodd" clip-rule="evenodd" d="M32.0147 26.4233H32.8172C33.0715 26.4233 33.2785 26.6247 33.2785 26.8719V48.5505C33.2785 48.7977 33.0715 48.9991 32.8172 48.9991H28.4056C28.1513 48.9991 27.9442 48.7977 27.9442 48.5505V47.7701H31.5534C31.8076 47.7701 32.0147 47.5688 32.0147 47.3216V26.4233Z" fill="#57CA5A"/>
</svg>
