<svg width="48" height="48" viewBox="0 0 48 48" fill="none" xmlns="http://www.w3.org/2000/svg">
<path d="M46.8625 8.64453H44.5877L42.8815 10.9194L41.1754 8.64453V4.09474C41.1754 3.46915 40.6635 2.95728 40.0379 2.95728H1.13747C0.511875 2.95728 0 3.46915 0 4.09474V40.4928C0 42.9952 2.04741 45.0426 4.54978 45.0426H43.4502C45.9526 45.0426 48 42.9952 48 40.4928V9.7819C48 9.15631 47.4881 8.64453 46.8625 8.64453Z" fill="#C2E7FF"/>
<path d="M44.5877 8.64453V38.7868C44.5877 39.7286 43.8234 40.4929 42.8816 40.4929C41.9398 40.4929 41.1754 39.7286 41.1754 38.7868V8.64453H44.5877Z" fill="#4EB9FF"/>
<path d="M17.744 39.3555H6.8246C6.19638 39.3555 5.68713 38.8463 5.68713 38.218C5.68713 37.5898 6.19638 37.0806 6.8246 37.0806H17.744C18.3723 37.0806 18.8815 37.5898 18.8815 38.218C18.8815 38.8463 18.3723 39.3555 17.744 39.3555Z" fill="#174461"/>
<path d="M34.3507 39.3555H23.4313C22.8031 39.3555 22.2938 38.8463 22.2938 38.218C22.2938 37.5898 22.8031 37.0806 23.4313 37.0806H34.3507C34.9789 37.0806 35.4882 37.5898 35.4882 38.218C35.4882 38.8463 34.9788 39.3555 34.3507 39.3555Z" fill="#174461"/>
<path d="M34.3507 10.9195H6.8246C6.19638 10.9195 5.68713 10.4102 5.68713 9.782C5.68713 9.15378 6.19638 8.64453 6.8246 8.64453H34.3506C34.9788 8.64453 35.4881 9.15378 35.4881 9.782C35.4881 10.4102 34.9788 10.9195 34.3507 10.9195Z" fill="#174461"/>
<path d="M34.3507 16.6067H23.4313C22.8031 16.6067 22.2938 16.0975 22.2938 15.4693C22.2938 14.841 22.8031 14.3318 23.4313 14.3318H34.3507C34.9789 14.3318 35.4882 14.841 35.4882 15.4693C35.4882 16.0975 34.9788 16.6067 34.3507 16.6067Z" fill="#174461"/>
<path d="M34.3507 22.294H23.4313C22.8031 22.294 22.2938 21.7847 22.2938 21.1565C22.2938 20.5283 22.8031 20.019 23.4313 20.019H34.3507C34.9789 20.019 35.4882 20.5283 35.4882 21.1565C35.4882 21.7847 34.9788 22.294 34.3507 22.294Z" fill="#174461"/>
<path d="M34.3507 27.981H23.4313C22.8031 27.981 22.2938 27.4717 22.2938 26.8435C22.2938 26.2153 22.8031 25.7061 23.4313 25.7061H34.3507C34.9789 25.7061 35.4882 26.2153 35.4882 26.8435C35.4881 27.4718 34.9788 27.981 34.3507 27.981Z" fill="#174461"/>
<path d="M34.3507 33.6682H23.4313C22.8031 33.6682 22.2938 33.159 22.2938 32.5308C22.2938 31.9026 22.8031 31.3933 23.4313 31.3933H34.3507C34.9789 31.3933 35.4882 31.9026 35.4882 32.5308C35.4882 33.159 34.9788 33.6682 34.3507 33.6682Z" fill="#174461"/>
<path d="M17.744 33.6682H6.8246C6.19638 33.6682 5.68713 33.159 5.68713 32.5308C5.68713 31.9026 6.19638 31.3933 6.8246 31.3933H17.744C18.3723 31.3933 18.8815 31.9026 18.8815 32.5308C18.8815 33.159 18.3723 33.6682 17.744 33.6682Z" fill="#174461"/>
<path d="M17.744 15.4692H6.82458V26.9574H17.744V15.4692Z" fill="#4EB9FF"/>
</svg>
