<svg width="44" height="44" viewBox="0 0 44 44" fill="none" xmlns="http://www.w3.org/2000/svg">
<g clip-path="url(#clip0_319_1535)">
<path d="M3.0938 10.4843H2.66415C2.42687 10.4843 2.2345 10.2919 2.2345 10.0547C2.2345 9.81738 2.42687 9.625 2.66415 9.625H3.0938C3.33108 9.625 3.52345 9.81738 3.52345 10.0547C3.52345 10.2919 3.33108 10.4843 3.0938 10.4843Z" fill="#5C77FF"/>
<path d="M1.20314 10.4843H0.773402C0.536128 10.4843 0.34375 10.2919 0.34375 10.0547C0.34375 9.81738 0.536128 9.625 0.773402 9.625H1.20305C1.44033 9.625 1.63271 9.81738 1.63271 10.0547C1.63271 10.2919 1.44041 10.4843 1.20314 10.4843Z" fill="#5C77FF"/>
<path d="M14.5521 23.9345C14.4203 23.9345 14.2902 23.8741 14.2059 23.7597L13.951 23.414C13.8102 23.2229 13.8509 22.9538 14.0419 22.8131C14.233 22.6722 14.5019 22.713 14.6428 22.9041L14.8977 23.2499C15.0385 23.4409 14.9978 23.7099 14.8068 23.8506C14.7301 23.9072 14.6407 23.9345 14.5521 23.9345Z" fill="#5C77FF"/>
<path d="M13.299 22.2341C13.1671 22.2341 13.0369 22.1737 12.9528 22.0593L12.4536 21.3821C12.3128 21.191 12.3535 20.922 12.5446 20.7813C12.7357 20.6404 13.0047 20.6812 13.1454 20.8723L13.6445 21.5495C13.7853 21.7406 13.7447 22.0096 13.5535 22.1504C13.4769 22.2068 13.3875 22.2341 13.299 22.2341ZM11.8018 20.2025C11.6698 20.2025 11.5397 20.142 11.4555 20.0276L10.9564 19.3503C10.8156 19.1592 10.8562 18.8903 11.0474 18.7495C11.2386 18.6086 11.5074 18.6494 11.6482 18.8405L12.1473 19.5178C12.2881 19.7088 12.2475 19.9779 12.0563 20.1186C11.9796 20.1751 11.8903 20.2025 11.8018 20.2025ZM10.3045 18.1706C10.1727 18.1706 10.0425 18.1102 9.95831 17.9959L9.45916 17.3186C9.31836 17.1276 9.35902 16.8585 9.55017 16.7178C9.74133 16.5769 10.0102 16.6177 10.1509 16.8088L10.6501 17.486C10.7909 17.6771 10.7502 17.9461 10.5591 18.0868C10.4824 18.1434 10.3931 18.1706 10.3045 18.1706ZM8.80731 16.139C8.67539 16.139 8.54526 16.0785 8.46101 15.9641L7.96194 15.2869C7.82114 15.0958 7.8618 14.8269 8.05287 14.6861C8.24402 14.5453 8.51291 14.586 8.6538 14.777L9.15279 15.4543C9.29359 15.6454 9.25285 15.9143 9.06185 16.0551C8.9851 16.1117 8.89579 16.139 8.80731 16.139ZM7.31008 14.1073C7.17817 14.1073 7.04804 14.0469 6.96379 13.9325L6.4648 13.2552C6.324 13.0641 6.36474 12.7951 6.55589 12.6543C6.7468 12.5136 7.01594 12.5543 7.15665 12.7454L7.65573 13.4228C7.79653 13.6138 7.75579 13.8828 7.56463 14.0235C7.48788 14.08 7.39857 14.1073 7.31008 14.1073Z" fill="#5C77FF"/>
<path d="M5.81282 12.0757C5.6809 12.0757 5.55078 12.0151 5.46661 11.9008L5.21165 11.5549C5.07085 11.3639 5.11151 11.0949 5.30267 10.9542C5.49382 10.8135 5.76271 10.854 5.90343 11.0451L6.15838 11.391C6.29918 11.5821 6.25852 11.851 6.06737 11.9918C5.99061 12.0483 5.90131 12.0757 5.81282 12.0757Z" fill="#5C77FF"/>
<path d="M41.9754 5.99592C41.768 5.99592 41.5741 5.88454 41.5023 5.70691C41.4117 5.48267 41.5499 5.23782 41.8112 5.16017L42.2842 5.01928C42.5457 4.94131 42.8308 5.06027 42.9213 5.28442C43.012 5.50858 42.8737 5.75343 42.6124 5.83117L42.1393 5.97205C42.0851 5.98826 42.0297 5.99592 41.9754 5.99592Z" fill="#5C77FF"/>
<path d="M30.0089 9.97046C29.8309 9.97046 29.6645 9.85908 29.6029 9.68153C29.5252 9.45729 29.6438 9.21244 29.8681 9.13471L30.7279 8.8364C30.9521 8.75851 31.197 8.87739 31.2746 9.10154C31.3524 9.3257 31.2337 9.57063 31.0096 9.64828L30.1497 9.94659C30.1032 9.9628 30.0556 9.97046 30.0089 9.97046ZM32.5883 9.07555C32.4104 9.07555 32.244 8.96417 32.1824 8.78654C32.1047 8.5623 32.2234 8.31745 32.4475 8.2398L33.3075 7.94149C33.5318 7.8636 33.7765 7.98248 33.8542 8.20663C33.932 8.43087 33.8133 8.67572 33.5891 8.75337L32.7291 9.05168C32.6827 9.06789 32.6351 9.07555 32.5883 9.07555ZM37.0329 7.6471C36.855 7.6471 36.6885 7.53571 36.627 7.35808C36.5492 7.13393 36.6679 6.889 36.8921 6.81134L37.7519 6.51304C37.9761 6.43506 38.221 6.55411 38.2986 6.7781C38.3764 7.00234 38.2577 7.24719 38.0335 7.32492L37.1737 7.62323C37.1273 7.63952 37.0796 7.6471 37.0329 7.6471ZM39.6125 6.75219C39.4344 6.75219 39.2681 6.6408 39.2065 6.46317C39.1288 6.23894 39.2474 5.99408 39.4716 5.91643L40.3315 5.61813C40.5558 5.54023 40.8006 5.65911 40.8783 5.88327C40.9561 6.10751 40.8374 6.35236 40.6132 6.43001L39.7533 6.72831C39.7066 6.74453 39.6591 6.75219 39.6125 6.75219Z" fill="#5C77FF"/>
<path d="M27.8831 10.7081C27.7053 10.7081 27.5388 10.5968 27.4772 10.4192C27.3995 10.195 27.5181 9.95015 27.7423 9.87233L28.1482 9.73145C28.3728 9.65347 28.6174 9.77235 28.695 9.99651C28.7728 10.2207 28.6541 10.4656 28.43 10.5433L28.024 10.6842C27.9775 10.7003 27.9299 10.7081 27.8831 10.7081Z" fill="#5C77FF"/>
<path d="M25.2362 12.7855C25.1445 12.7855 25.0519 12.7564 24.9737 12.6958C24.7859 12.5508 24.7514 12.2808 24.8966 12.0931L25.1594 11.7531C25.3045 11.5654 25.5742 11.5307 25.7621 11.6759C25.95 11.821 25.9845 12.091 25.8393 12.2787L25.5764 12.6187C25.4919 12.7282 25.3648 12.7855 25.2362 12.7855Z" fill="#5C77FF"/>
<path d="M17.7828 22.4262C17.6911 22.4262 17.5984 22.397 17.5203 22.3364C17.3325 22.1913 17.298 21.9214 17.4432 21.7337L17.9401 21.091C18.0853 20.9031 18.3552 20.8686 18.5429 21.0139C18.7306 21.159 18.7651 21.4289 18.6199 21.6166L18.123 22.2594C18.0384 22.3688 17.9113 22.4262 17.7828 22.4262ZM19.2735 20.4981C19.1816 20.4981 19.0891 20.469 19.0108 20.4083C18.823 20.2632 18.7886 19.9934 18.9338 19.8056L19.4307 19.1629C19.5758 18.975 19.8458 18.9406 20.0334 19.0858C20.2213 19.2309 20.2557 19.5009 20.1105 19.6885L19.6136 20.3313C19.5291 20.4408 19.4019 20.4981 19.2735 20.4981ZM20.7642 18.57C20.6724 18.57 20.5799 18.5408 20.5016 18.4802C20.3138 18.335 20.2793 18.0652 20.4245 17.8774L20.9215 17.2347C21.0665 17.0468 21.3366 17.0124 21.5242 17.1576C21.712 17.3028 21.7465 17.5727 21.6013 17.7604L21.1043 18.4032C21.0198 18.5127 20.8926 18.57 20.7642 18.57ZM22.2548 16.6419C22.1631 16.6419 22.0705 16.6127 21.9923 16.5521C21.8045 16.4069 21.7701 16.1371 21.9153 15.9493L22.4121 15.3066C22.5572 15.1188 22.8269 15.0843 23.015 15.2295C23.2028 15.3747 23.2373 15.6446 23.092 15.8323L22.5951 16.4751C22.5104 16.5846 22.3833 16.6419 22.2548 16.6419ZM23.7455 14.7138C23.6537 14.7138 23.5612 14.6846 23.4829 14.624C23.2951 14.4789 23.2606 14.209 23.406 14.0213L23.9028 13.3785C24.0478 13.191 24.3175 13.1562 24.5055 13.3015C24.6934 13.4466 24.7278 13.7165 24.5825 13.9042L24.0858 14.547C24.0011 14.6564 23.8739 14.7138 23.7455 14.7138Z" fill="#5C77FF"/>
<path d="M16.5263 24.0515C16.4345 24.0515 16.342 24.0222 16.2637 23.9617C16.0759 23.8166 16.0414 23.5467 16.1866 23.359L16.4494 23.019C16.5945 22.8311 16.8644 22.7967 17.0521 22.9419C17.2399 23.0871 17.2744 23.3569 17.1293 23.5446L16.8664 23.8845C16.7819 23.994 16.6548 24.0515 16.5263 24.0515Z" fill="#5C77FF"/>
<path d="M0.773438 19.3359H8.61098V43.3125H0.773438V19.3359Z" fill="#5C77FF"/>
<path d="M11.5499 30.1641H19.3875V43.3125H11.5499V30.1641Z" fill="#B4C7FC"/>
<path d="M22.3265 24.75H30.1641V43.3125H22.3265V24.75Z" fill="#95ABFC"/>
<path d="M32.9447 16.7201C31.5952 18.19 29.7677 19.1653 27.7983 19.4668C27.5498 19.5051 27.2996 19.532 27.0495 19.5483C26.8564 19.5605 26.6633 19.567 26.4702 19.567C24.9644 19.567 23.4693 19.1824 22.155 18.4442C21.9594 18.3334 21.8893 18.0849 22.0001 17.8893C22.1101 17.6929 22.3587 17.6237 22.555 17.7337C24.4764 18.8141 26.6723 19.0284 28.6679 18.4532C30.04 18.058 31.3176 17.288 32.3451 16.1692C33.7873 14.5983 34.5321 12.5588 34.4408 10.4281C34.3505 8.29732 33.4353 6.32954 31.8644 4.8865C29.1779 2.42006 25.2457 2.14465 22.2822 3.96494C21.667 4.3422 21.0933 4.80991 20.5816 5.36724C20.4944 5.46257 20.4105 5.55872 20.3282 5.6565C18.0516 8.39265 17.8944 12.3526 19.8564 15.2534C19.8654 15.2664 19.8744 15.2795 19.8833 15.2925C19.9396 15.374 19.9974 15.4546 20.0569 15.5353C20.083 15.5687 20.109 15.6029 20.1351 15.6372C20.1816 15.6983 20.2296 15.7586 20.2785 15.8189C20.3168 15.8653 20.3559 15.9109 20.395 15.9574C20.4374 16.0063 20.4798 16.0552 20.5238 16.1041C20.5947 16.1823 20.6664 16.2613 20.7413 16.3379C20.8978 16.4992 20.8945 16.7567 20.734 16.914C20.5727 17.0712 20.3144 17.068 20.1579 16.9066C20.0968 16.8439 20.0365 16.7804 19.9779 16.716C19.977 16.7152 19.9754 16.7144 19.9746 16.7127C19.9526 16.6891 19.9314 16.6655 19.9094 16.641C19.8899 16.619 19.8695 16.5962 19.8491 16.5742C19.8255 16.5465 19.801 16.518 19.7774 16.4903C19.7546 16.4642 19.7326 16.4381 19.7098 16.4121C19.6927 16.3909 19.6756 16.3697 19.6584 16.3485C19.6299 16.3143 19.6022 16.2809 19.5745 16.2466C19.5721 16.2434 19.5696 16.2401 19.5672 16.2369C18.8803 15.3732 18.3792 14.4101 18.0639 13.3997C18.0639 13.3989 18.063 13.3981 18.063 13.3972C18.0435 13.3345 18.0247 13.2718 18.0068 13.2082C18.006 13.2058 18.0052 13.2041 18.0044 13.2017C17.9864 13.1389 17.9693 13.077 17.953 13.0143C17.9522 13.011 17.9514 13.0086 17.9506 13.0053C17.9343 12.9434 17.9188 12.8806 17.9041 12.8187C17.9033 12.8146 17.9025 12.8114 17.9017 12.8073C17.887 12.7454 17.8724 12.6826 17.8593 12.6207C17.8585 12.6166 17.8577 12.6134 17.8569 12.6101C17.8439 12.5466 17.8308 12.4838 17.8186 12.4211C17.8186 12.4178 17.8178 12.4146 17.817 12.4113C17.8047 12.3478 17.7933 12.2834 17.7827 12.2198C17.7827 12.2174 17.7819 12.2141 17.7819 12.2117C17.7713 12.1473 17.7607 12.0821 17.7518 12.0178C17.7518 12.0153 17.751 12.0137 17.751 12.0112C17.742 11.9452 17.733 11.8801 17.7249 11.8141V11.81C17.7167 11.7432 17.7094 11.6764 17.7037 11.6095C17.7029 11.6087 17.7029 11.6087 17.7029 11.6079C17.6972 11.5403 17.6915 11.4726 17.6866 11.4058C17.6866 11.405 17.6866 11.4042 17.6858 11.4034C17.6817 11.3366 17.6776 11.2689 17.6744 11.2013C17.6736 11.2005 17.6736 11.1989 17.6736 11.1981C17.6703 11.1312 17.6679 11.0652 17.6662 10.9984V10.9895C17.6646 10.9259 17.6638 10.8624 17.6638 10.7988C17.6638 10.7955 17.663 10.7915 17.663 10.7874C17.663 10.7841 17.6638 10.7809 17.6638 10.7776C17.663 10.7189 17.6638 10.6595 17.6654 10.6008C17.6654 10.5878 17.6654 10.5755 17.6662 10.5625C17.667 10.5104 17.6687 10.4574 17.6711 10.4052C17.6719 10.3857 17.6727 10.3669 17.6736 10.3474C17.676 10.3018 17.6784 10.2569 17.6809 10.2113C17.6825 10.1852 17.6841 10.1592 17.6866 10.1331C17.689 10.0948 17.6923 10.0565 17.6956 10.0182C17.698 9.98561 17.7013 9.95302 17.7045 9.91961C17.707 9.88865 17.7102 9.85687 17.7135 9.82509C17.7184 9.7868 17.7224 9.74768 17.7273 9.70857C17.7298 9.68331 17.733 9.65806 17.7363 9.6328C17.7428 9.58798 17.7485 9.54317 17.755 9.49917C17.7575 9.4788 17.7607 9.45924 17.764 9.43887C17.7713 9.38998 17.7795 9.34028 17.7876 9.29139C17.7901 9.27591 17.7925 9.26043 17.7958 9.24494C17.8047 9.19198 17.8145 9.13902 17.8251 9.08606C17.8276 9.07383 17.83 9.06161 17.8324 9.04857C17.843 8.99317 17.8544 8.93857 17.8667 8.88317C17.8691 8.87257 17.8716 8.86198 17.874 8.85139C17.8862 8.79517 17.8993 8.73894 17.9131 8.68272C17.9156 8.67294 17.918 8.66235 17.9204 8.65257C17.9343 8.59635 17.9481 8.54094 17.9636 8.48472C17.9661 8.47413 17.9693 8.46354 17.9726 8.45294C17.9873 8.39754 18.0027 8.34294 18.0182 8.28917C18.0223 8.27694 18.0256 8.26472 18.0296 8.2525C18.0451 8.19954 18.0614 8.14739 18.0777 8.09524C18.0826 8.08057 18.0867 8.06672 18.0916 8.05206C18.1079 8.00235 18.1241 7.95265 18.1413 7.90376C18.147 7.88665 18.1535 7.86954 18.1592 7.85161C18.1755 7.80598 18.1918 7.75954 18.2089 7.71391C18.2162 7.69354 18.2236 7.67317 18.2317 7.6528C18.248 7.61043 18.2643 7.56887 18.2806 7.5265C18.2896 7.50287 18.2993 7.47924 18.3091 7.45561C18.3246 7.41731 18.3401 7.37902 18.3564 7.34072C18.3678 7.31383 18.3792 7.28694 18.3914 7.26087C18.4061 7.22583 18.4216 7.19161 18.437 7.15739C18.4501 7.12724 18.4639 7.09709 18.4778 7.06776C18.4924 7.0368 18.5071 7.00583 18.5218 6.97487C18.5373 6.94228 18.5527 6.90969 18.5682 6.87791C18.5821 6.84939 18.5967 6.82168 18.6106 6.79398C18.6277 6.75976 18.6456 6.72472 18.6636 6.6905C18.6766 6.66524 18.6904 6.63998 18.7043 6.61472C18.723 6.57887 18.7426 6.5422 18.763 6.50635C18.776 6.48354 18.789 6.45991 18.8021 6.43709C18.8233 6.39961 18.8444 6.36294 18.8656 6.32546C18.8787 6.30346 18.8917 6.28228 18.9047 6.26028C18.9276 6.2228 18.9504 6.1845 18.9732 6.14783C18.9862 6.12665 18.9993 6.10546 19.0123 6.08509C19.0359 6.04761 19.0596 6.00931 19.084 5.97183C19.0979 5.95146 19.1117 5.93109 19.1247 5.91072C19.15 5.87324 19.1744 5.83657 19.1997 5.79991C19.2136 5.77872 19.2282 5.75754 19.2429 5.73717C19.2681 5.70131 19.2934 5.66546 19.3187 5.63043C19.335 5.60761 19.3513 5.58561 19.3676 5.56361C19.392 5.5302 19.4173 5.49598 19.4425 5.46257C19.4604 5.43894 19.4792 5.41531 19.4979 5.39087C19.5216 5.35991 19.5452 5.32894 19.5704 5.29798C19.5916 5.27109 19.6136 5.2442 19.6356 5.21731C19.6576 5.18961 19.6796 5.16272 19.7024 5.13502C19.7293 5.10243 19.7579 5.07065 19.7856 5.03806C19.8035 5.01687 19.8214 4.99569 19.8393 4.9745C19.8858 4.92154 19.933 4.86857 19.9811 4.81643C20.1042 4.6828 20.2304 4.55324 20.36 4.42939C23.6787 1.22961 28.9742 1.12776 32.4152 4.2868C34.1467 5.8765 35.1554 8.04472 35.2548 10.3938C35.3549 12.7421 34.5343 14.9886 32.9447 16.7201Z" fill="#354B87"/>
<path d="M37.9869 20.4626C37.9371 20.3702 37.8725 20.285 37.7893 20.2019L36.4315 18.844C36.6929 18.3736 36.6253 17.7679 36.2263 17.3689L35.1656 16.3082C35.184 16.2795 35.2026 16.2512 35.2208 16.2224C37.8388 12.0076 37.0801 6.5074 33.417 3.14376C29.212 -0.717485 22.6491 -0.437922 18.7875 3.76742C15.054 7.83334 15.1601 14.0975 19.0293 18.0284C19.1871 18.1888 19.4451 18.1908 19.6055 18.033C19.7658 17.8751 19.7678 17.6172 19.61 17.4568C16.0457 13.8355 15.948 8.06451 19.3877 4.31856C22.9454 0.444196 28.9917 0.186552 32.8661 3.74411C36.241 6.8431 36.9403 11.9102 34.5299 15.7907C34.369 16.0468 34.1975 16.2945 34.0168 16.5323C33.9978 16.5572 33.9777 16.581 33.9585 16.6056C33.8892 16.6951 33.8193 16.7839 33.7475 16.8703C33.6845 16.9459 33.6194 17.0191 33.5543 17.0923C33.5222 17.1286 33.4911 17.1661 33.4586 17.2017C33.3607 17.309 33.2609 17.4139 33.1591 17.5155C32.832 17.8427 32.4897 18.141 32.1374 18.4062C32.1361 18.4072 32.1348 18.4083 32.1334 18.4092C32.1126 18.4249 32.0917 18.4397 32.0708 18.4551C32.0009 18.5066 31.9304 18.557 31.8594 18.6063C31.8363 18.6223 31.8133 18.6387 31.79 18.6545C28.7382 20.7385 24.7684 20.8806 21.5679 18.9891C21.374 18.8747 21.1243 18.9389 21.0098 19.1326C20.8953 19.3263 20.9596 19.5762 21.1533 19.6907C22.7477 20.6329 24.5526 21.1238 26.4054 21.1238C26.5903 21.1238 26.7758 21.1189 26.9614 21.109C28.7482 21.0145 30.4585 20.4688 31.9526 19.5228L33.0125 20.5827C33.2454 20.8155 33.5558 20.9437 33.8867 20.9437C34.1255 20.9437 34.3531 20.876 34.5491 20.7514L35.8942 22.0964C35.9774 22.1799 36.0629 22.2446 36.1556 22.2945C36.2164 22.3271 36.2827 22.3431 36.3483 22.3431C36.4539 22.3431 36.5582 22.3021 36.6365 22.2237L37.9162 20.944C38.0437 20.8168 38.0723 20.621 37.9869 20.4626ZM33.5888 20.0065L32.6343 19.052C32.6361 19.0507 32.6379 19.0492 32.6397 19.0478C33.1065 18.6978 33.5557 18.2924 33.977 17.8412C33.9823 17.8356 33.9877 17.83 33.9929 17.8243C34.0087 17.8072 34.0249 17.7905 34.0407 17.7733C34.1036 17.7048 34.1655 17.6349 34.2269 17.5643C34.2317 17.5589 34.2363 17.5533 34.241 17.5479C34.3057 17.4732 34.3693 17.3971 34.4323 17.3201C34.4515 17.2967 34.4707 17.2734 34.4897 17.2498C34.5477 17.1776 34.6051 17.1046 34.6615 17.0304C34.6723 17.0165 34.6834 17.0029 34.694 16.9889L35.6501 17.945C35.8145 18.1094 35.8144 18.3768 35.6501 18.5412L35.6017 18.5896C35.6016 18.5896 35.6014 18.5898 35.6012 18.5899L34.2825 19.9087L34.1848 20.0064C34.1057 20.0854 33.9999 20.1288 33.8867 20.1288C33.7735 20.1288 33.6679 20.0855 33.5888 20.0065ZM36.3291 21.379L35.147 20.1969L35.5183 19.8255L35.8895 19.4542L37.0717 20.6364L36.3291 21.379Z" fill="#354B87"/>
<path d="M38.8442 20.0419L42.4342 23.6317C43.2791 24.4767 43.2791 25.8639 42.4342 26.7088C41.5891 27.5538 40.202 27.5538 39.357 26.7088L35.767 23.1188C35.4447 22.7964 35.4447 22.2689 35.767 21.9466L37.6719 20.0418C37.9942 19.7195 38.5217 19.7195 38.8442 20.0419Z" fill="#5C77FF"/>
<path d="M17.0157 24.75C17.0157 25.6041 16.323 26.2968 15.4688 26.2968C14.6147 26.2968 13.922 25.6041 13.922 24.75C13.922 24.2387 14.1695 23.7858 14.5518 23.5048C14.808 23.3148 15.126 23.2031 15.4688 23.2031C15.878 23.2031 16.25 23.3621 16.5267 23.6217C16.8275 23.9035 17.0157 24.3048 17.0157 24.75Z" fill="#95ABFC"/>
<path d="M6.18756 10.0547C6.18756 10.566 5.94002 11.0189 5.55763 11.2999C5.30153 11.4898 4.98359 11.6015 4.64072 11.6015C3.78655 11.6015 3.09387 10.9088 3.09387 10.0547C3.09387 9.20049 3.78655 8.50781 4.64072 8.50781C5.49489 8.50781 6.18756 9.20049 6.18756 10.0547Z" fill="#95ABFC"/>
<path d="M27.9632 10.7706C27.9632 11.6247 27.2705 12.3174 26.4163 12.3174C26.0735 12.3174 25.7563 12.2057 25.4994 12.0158C25.4504 11.9797 25.4031 11.941 25.3585 11.8988C25.0577 11.617 24.8695 11.2156 24.8695 10.7705C24.8695 9.91623 25.5621 9.22363 26.4163 9.22363C27.0978 9.22363 27.677 9.66534 27.8833 10.278C27.9125 10.3657 27.934 10.4576 27.9477 10.5513C27.958 10.6228 27.9632 10.6958 27.9632 10.7706Z" fill="#95ABFC"/>
<path opacity="0.3" d="M32.3449 16.1693C31.3174 17.288 30.0398 18.058 28.6676 18.4532C30.426 16.936 31.5382 14.6904 31.5382 12.1856C31.5382 7.61372 27.8316 3.90713 23.2596 3.90713C22.9288 3.90713 22.6021 3.92668 22.2819 3.96498C25.2453 2.14468 29.1776 2.42009 31.8641 4.88654C33.435 6.32957 34.3502 8.29735 34.4405 10.4281C34.5319 12.5588 33.7871 14.5983 32.3449 16.1693Z" fill="#5C77FF"/>
</g>
<defs>
<clipPath id="clip0_319_1535">
<rect width="44" height="44" fill="white"/>
</clipPath>
</defs>
</svg>
