<svg width="48" height="48" viewBox="0 0 48 48" fill="none" xmlns="http://www.w3.org/2000/svg">
<g clip-path="url(#clip0_319_1152)">
<path d="M2.28001 13.4999V43.86H45.7201V13.4999C45.7201 12.8399 45.2401 12.3599 44.5801 12.3599H3.36008C2.76003 12.36 2.28001 12.84 2.28001 13.4999Z" fill="#64798A"/>
<path d="M4.91997 14.9399H43.14V41.22H4.91997V14.9399Z" fill="#EBF0F3"/>
<path d="M6.42001 12.3601H41.64V15.0002H6.42001V12.3601Z" fill="#3A556A"/>
<path d="M6.42001 14.9399H41.64V27.5399H6.42001V14.9399Z" fill="#E1E6E9"/>
<path d="M7.68005 0H40.3201V26.2801H7.68005V0Z" fill="white"/>
<path d="M0 43.8601H48V46.9801H0V43.8601Z" fill="#EBF0F3"/>
<path d="M0.0599937 46.98H47.9401L44.64 48H3.35995L0.0599937 46.98Z" fill="#D5D6DB"/>
<path d="M20.6401 45.0601H27.3601V45.78H20.6401V45.0601Z" fill="#D5D6DB"/>
<path d="M11.4001 2.3999C12.4201 2.3999 13.2601 3.23991 13.2601 4.25991C13.2601 4.49987 13.2001 4.73993 13.14 4.97989L19.8 9.83993C20.1 9.53991 20.52 9.35991 21 9.35991C21.66 9.35991 22.2 9.7199 22.56 10.1999L28.2 8.21988C28.2 8.15992 28.2 8.09985 28.2 8.03989C28.2 7.01989 29.04 6.17988 30.06 6.17988C31.08 6.17988 31.92 7.01989 31.92 8.03989C31.92 8.39988 31.8 8.81993 31.62 9.11985L35.7 13.5598C35.9399 13.4398 36.24 13.3199 36.6 13.3199C37.62 13.3199 38.46 14.1599 38.46 15.1799C38.46 16.1999 37.62 17.0399 36.6 17.0399C35.58 17.0399 34.7399 16.1999 34.7399 15.1799C34.7399 14.8199 34.86 14.3999 35.04 14.0999L31.0199 9.65994C30.78 9.77997 30.4799 9.8999 30.12 9.8999C29.4599 9.8999 28.92 9.53991 28.56 9.05989L22.92 11.0399C22.92 11.0999 22.92 11.16 22.92 11.2199C22.92 12.2399 22.08 13.0799 21.06 13.0799C20.04 13.0799 19.2 12.2399 19.2 11.2199C19.2 10.98 19.2599 10.7399 19.32 10.4999L12.66 5.69996C12.36 5.99999 11.94 6.17998 11.46 6.17998C10.44 6.17998 9.60001 5.33997 9.60001 4.31997C9.54005 3.23991 10.3801 2.3999 11.4001 2.3999ZM36.6001 16.1399C37.14 16.1399 37.6201 15.72 37.6201 15.1199C37.6201 14.5799 37.2001 14.0999 36.6001 14.0999C36 14.0999 35.5801 14.5199 35.5801 15.1199C35.5801 15.7199 36 16.1399 36.6001 16.1399ZM30.06 8.99992C30.6 8.99992 31.08 8.57997 31.08 7.97992C31.08 7.43994 30.66 6.95992 30.06 6.95992C29.52 6.95992 29.04 7.37988 29.04 7.97992C29.1001 8.57987 29.52 8.99992 30.06 8.99992ZM21 12.2399C21.54 12.2399 22.02 11.82 22.02 11.2199C22.02 10.6799 21.6001 10.1999 21 10.1999C20.46 10.1999 19.98 10.6199 19.98 11.2199C20.0401 11.82 20.46 12.2399 21 12.2399ZM11.4001 5.27991C11.94 5.27991 12.4201 4.85996 12.4201 4.25991C12.4201 3.71993 12.0001 3.23991 11.4001 3.23991C10.8 3.23991 10.3801 3.65986 10.3801 4.25991C10.44 4.79989 10.8601 5.27991 11.4001 5.27991Z" fill="#E56353"/>
<path d="M35.46 23.52H37.8V24.4801H35.46V23.52Z" fill="#2D93BA"/>
<path d="M35.46 18.1201H37.8V23.5201H35.46V18.1201Z" fill="#27A2DB"/>
<path d="M28.8 12.6599H31.14V23.5799H28.8V12.6599Z" fill="#FCD462"/>
<path d="M28.8 23.52H31.14V24.4801H28.8V23.52Z" fill="#F6C358"/>
<path d="M19.68 14.4001H22.02V23.5202H19.68V14.4001Z" fill="#64798A"/>
<path d="M19.68 23.52H22.02V24.4801H19.68V23.52Z" fill="#3A556A"/>
<path d="M10.6199 23.52H12.96V24.4801H10.6199V23.52Z" fill="#3EA69B"/>
<path d="M10.6199 8.21997H12.96V23.5799H10.6199V8.21997Z" fill="#44C4A1"/>
<path d="M32.22 30.3601H41.1V38.1002H32.22V30.3601Z" fill="#FCD462"/>
<path d="M19.56 30.3601H28.4399V38.1002H19.56V30.3601Z" fill="#44C4A1"/>
<path d="M6.89992 30.3601H15.7799V38.1002H6.89992V30.3601Z" fill="#E56353"/>
<path d="M32.22 37.2H41.1V38.0999H32.22V37.2Z" fill="#F6C358"/>
<path d="M19.56 37.2H28.4399V38.0999H19.56V37.2Z" fill="#3EA69B"/>
<path d="M6.89992 37.2H15.7799V38.0999H6.89992V37.2Z" fill="#D15241"/>
</g>
<defs>
<clipPath id="clip0_319_1152">
<rect width="48" height="48" fill="white" transform="matrix(-1 0 0 1 48 0)"/>
</clipPath>
</defs>
</svg>
