<svg width="48" height="48" viewBox="0 0 48 48" fill="none" xmlns="http://www.w3.org/2000/svg">
<g clip-path="url(#clip0_319_1598)">
<path d="M24 48C37.2548 48 48 37.2548 48 24C48 10.7452 37.2548 0 24 0C10.7452 0 0 10.7452 0 24C0 37.2548 10.7452 48 24 48Z" fill="#54C0EB"/>
<path d="M24 42C14.1 42 6 33.9 6 24C6 14.1 14.1 6 24 6C33.9 6 42 14.1 42 24C42 33.9 33.9 42 24 42Z" fill="#F2F2F2"/>
<path d="M24 36C17.4 36 12 30.6 12 24C12 17.4 17.4 12 24 12C30.6 12 36 17.4 36 24C36 30.6 30.6 36 24 36Z" fill="#FF7058"/>
<path d="M24 30C20.7 30 18 27.3 18 24C18 20.7 20.7 18 24 18C27.3 18 30 20.7 30 24C30 27.3 27.3 30 24 30Z" fill="#CDD6E0"/>
<path d="M24 30C20.7 30 18 27.3 18 24C18 20.7 20.7 18 24 18C27.3 18 30 20.7 30 24C30 27.3 27.3 30 24 30Z" fill="#FFD15C"/>
<path opacity="0.2" d="M47.8 27C47.4 30 46.5 32.8001 45.1 35.4L43.8 34.9001L42.1 31.3001L24.1 24.8001C23.3 24.5001 22.9 23.6001 23.2 22.8001C23.5 22.0002 24.4 21.6001 25.2 21.9001L43.2 28.4001L46.8 26.7001L47.8 27Z" fill="#334A5E"/>
<path d="M40.4 9.70015L25.7 24.4001C25.1 25.0001 24.0999 25.0001 23.4999 24.4001C22.8999 23.8001 22.8999 22.8001 23.4999 22.2001L38.3 7.60015C38.9 7.00015 39.9 7.00015 40.5 7.60015C41 8.20015 41 9.10015 40.4 9.70015Z" fill="#40596B"/>
<path d="M41.8 6.19997L37.1 10.9V4.69997L41.8 0V6.19997Z" fill="#FF7058"/>
<path d="M43.3 10.9L48 6.19995H41.8L37.1 10.9H43.3Z" fill="#F1543F"/>
</g>
<defs>
<clipPath id="clip0_319_1598">
<rect width="48" height="48" fill="white"/>
</clipPath>
</defs>
</svg>
