<svg width="48" height="48" viewBox="0 0 48 48" fill="none" xmlns="http://www.w3.org/2000/svg">
<g clip-path="url(#clip0_319_1516)">
<path fill-rule="evenodd" clip-rule="evenodd" d="M38.925 32.5365C38.7225 31.9185 38.1525 31.5 37.5 31.5C36.8475 31.5 36.2775 31.9185 36.075 32.5365L34.65 36.9038L30.285 38.3235C29.67 38.5245 29.25 39.1005 29.25 39.75C29.25 40.3995 29.67 40.9755 30.285 41.1765L34.65 42.5962L36.075 46.9635C36.2775 47.5815 36.8475 48 37.5 48C38.1525 48 38.7225 47.5815 38.925 46.9635L40.35 42.5962L44.715 41.1765C45.33 40.9755 45.75 40.3995 45.75 39.75C45.75 39.1005 45.33 38.5245 44.715 38.3235L40.35 36.9038L38.925 32.5365Z" fill="#29F5B7"/>
<path fill-rule="evenodd" clip-rule="evenodd" d="M0 27.7493C0 28.845 0.704967 29.8192 1.74747 30.1582L12.765 33.7388L16.3425 44.751C16.68 45.7935 17.655 46.5 18.75 46.5C19.845 46.5 20.82 45.7943 21.1575 44.751L24.7425 33.7388L35.7525 30.1582C36.795 29.8192 37.5 28.8458 37.5 27.75C37.5 26.6535 36.795 25.6808 35.7525 25.3418L24.7425 21.7612L21.1575 10.749C20.82 9.70575 19.845 9 18.75 9C17.655 9 16.68 9.7065 16.3425 10.749L12.765 21.7612L1.74747 25.3418C0.704967 25.6808 0 26.6528 0 27.7493Z" fill="#29DDF5"/>
<path fill-rule="evenodd" clip-rule="evenodd" d="M38.175 1.0365C37.9725 0.4185 37.4025 0 36.75 0C36.0975 0 35.5275 0.4185 35.325 1.0365L33.165 7.66725L26.535 9.8235C25.92 10.0245 25.5 10.6005 25.5 11.25C25.5 11.8995 25.92 12.4755 26.535 12.6765L33.165 14.8328L35.325 21.4635C35.5275 22.0815 36.0975 22.5 36.75 22.5C37.4025 22.5 37.9725 22.0815 38.175 21.4635L40.335 14.8328L46.965 12.6765C47.58 12.4755 48 11.8995 48 11.25C48 10.6005 47.58 10.0245 46.965 9.8235L40.335 7.66725L38.175 1.0365Z" fill="#A2EDF7"/>
<path fill-rule="evenodd" clip-rule="evenodd" d="M6 9.75H4.5C3.675 9.75 3 10.422 3 11.25C3 12.078 3.675 12.75 4.5 12.75H6V14.25C6 15.078 6.675 15.75 7.5 15.75C8.325 15.75 9 15.078 9 14.25V12.75H10.5C11.325 12.75 12 12.078 12 11.25C12 10.422 11.325 9.75 10.5 9.75H9V8.25C9 7.422 8.325 6.75 7.5 6.75C6.675 6.75 6 7.422 6 8.25V9.75Z" fill="#29B7F5"/>
</g>
<defs>
<clipPath id="clip0_319_1516">
<rect width="48" height="48" fill="white"/>
</clipPath>
</defs>
</svg>
