<svg width="48" height="48" viewBox="0 0 48 48" fill="none" xmlns="http://www.w3.org/2000/svg">
<path d="M45.0752 0C46.6863 0 48 1.3354 48 2.97313V20.7781C48 22.4159 46.6863 23.7428 45.0835 23.7428H41.4977V28.3956C41.4977 28.9416 40.8615 29.2439 40.4484 28.8912L34.3592 23.7428H17.7275C16.1164 23.7428 14.811 22.4159 14.811 20.7697V2.96473C14.811 1.32699 16.1164 0 17.7192 0H45.0752Z" fill="#66CCFF"/>
<path d="M45.1929 14.0638C45.3539 14.0638 45.4846 13.931 45.4846 13.7673V5.99771C45.4846 5.834 45.3539 5.70117 45.1929 5.70117C45.0318 5.70117 44.9012 5.834 44.9012 5.99771V13.7673C44.9012 13.931 45.0318 14.0638 45.1929 14.0638Z" fill="white"/>
<path d="M45.1929 4.7789C45.3539 4.7789 45.4846 4.64607 45.4846 4.48235V3.80973C45.4846 3.64601 45.3539 3.51318 45.1929 3.51318C45.0318 3.51318 44.9012 3.64601 44.9012 3.80973V4.48235C44.9012 4.64607 45.0318 4.7789 45.1929 4.7789Z" fill="white"/>
<path d="M21.8694 7.58485H40.9417C41.2638 7.58485 41.5251 7.3192 41.5251 6.99177C41.5251 6.66434 41.2638 6.39868 40.9417 6.39868H21.8694C21.5473 6.39868 21.286 6.66434 21.286 6.99177C21.286 7.3192 21.5473 7.58485 21.8694 7.58485Z" fill="white"/>
<path d="M21.8694 12.2577H40.9417C41.2638 12.2577 41.5251 11.992 41.5251 11.6646C41.5251 11.3372 41.2638 11.0715 40.9417 11.0715H21.8694C21.5473 11.0715 21.286 11.3372 21.286 11.6646C21.286 11.992 21.5473 12.2577 21.8694 12.2577Z" fill="white"/>
<path d="M21.8694 16.9306H40.9417C41.2638 16.9306 41.5251 16.6649 41.5251 16.3375C41.5251 16.01 41.2638 15.7444 40.9417 15.7444H21.8694C21.5473 15.7444 21.286 16.01 21.286 16.3375C21.286 16.6649 21.5473 16.9306 21.8694 16.9306Z" fill="white"/>
<path d="M2.92482 18.957C1.31369 18.957 3.8147e-05 20.2924 3.8147e-05 21.9302V39.7351C3.8147e-05 41.3729 1.31369 42.6999 2.91655 42.6999H6.50235V47.3527C6.50235 47.8986 7.1385 48.2009 7.55161 47.8482L13.6408 42.6999H30.2725C31.8837 42.6999 33.1891 41.3729 33.1891 39.7267V21.9218C33.1891 20.284 31.8837 18.957 30.2808 18.957C30.2808 18.957 2.92482 18.957 2.92482 18.957Z" fill="#C9EAF5"/>
<path d="M8.1972 26.704H27.2695C27.5916 26.704 27.8529 26.4383 27.8529 26.1109C27.8529 25.7835 27.5916 25.5178 27.2695 25.5178H8.1972C7.87509 25.5178 7.61375 25.7835 7.61375 26.1109C7.61375 26.4383 7.87509 26.704 8.1972 26.704Z" fill="#A9DCEA"/>
<path d="M8.1972 31.2169H27.2695C27.5916 31.2169 27.8529 30.9513 27.8529 30.6238C27.8529 30.2964 27.5916 30.0308 27.2695 30.0308H8.1972C7.87509 30.0308 7.61375 30.2964 7.61375 30.6238C7.61375 30.9513 7.87509 31.2169 8.1972 31.2169Z" fill="#A9DCEA"/>
<path d="M8.1972 35.8898H27.2695C27.5916 35.8898 27.8529 35.6241 27.8529 35.2967C27.8529 34.9693 27.5916 34.7036 27.2695 34.7036H8.1972C7.87509 34.7036 7.61375 34.9693 7.61375 35.2967C7.61375 35.6241 7.87509 35.8898 8.1972 35.8898Z" fill="#A9DCEA"/>
<path d="M30.663 23.7911C30.824 23.7911 30.9547 23.6583 30.9547 23.4945V22.8412C30.9547 22.6775 30.824 22.5447 30.663 22.5447C30.5019 22.5447 30.3713 22.6775 30.3713 22.8412V23.4945C30.3713 23.6583 30.5019 23.7911 30.663 23.7911Z" fill="white"/>
<path d="M30.663 33.8295C30.824 33.8295 30.9547 33.6967 30.9547 33.533V25.0946C30.9547 24.9309 30.824 24.7981 30.663 24.7981C30.5019 24.7981 30.3713 24.9309 30.3713 25.0946V33.533C30.3713 33.6967 30.5019 33.8295 30.663 33.8295Z" fill="white"/>
</svg>
