<svg width="280" height="213" viewBox="0 0 280 213" fill="none" xmlns="http://www.w3.org/2000/svg">
<path d="M273.684 0.314209H5.69929C2.82748 0.314209 0.49942 2.64227 0.49942 5.51407V207.148C0.49942 210.02 2.82748 212.348 5.69929 212.348H273.684C276.555 212.348 278.883 210.02 278.883 207.148V5.51407C278.883 2.64227 276.555 0.314209 273.684 0.314209Z" fill="#F1F4F2"/>
<path d="M273.684 212.663H5.6979C2.65822 212.663 0.183929 210.19 0.183929 207.149V5.51397C0.183929 2.47429 2.65679 0 5.6979 0H273.682C276.722 0 279.196 2.47286 279.196 5.51397V207.149C279.196 210.189 276.723 212.663 273.682 212.663H273.684ZM5.6979 0.62821C3.00373 0.62821 0.812138 2.81981 0.812138 5.51397V207.149C0.812138 209.843 3.00373 212.035 5.6979 212.035H273.682C276.376 212.035 278.568 209.843 278.568 207.149V5.51397C278.568 2.81981 276.376 0.62821 273.682 0.62821H5.6979Z" fill="black"/>
<path d="M29.4685 15.2497C31.2806 15.2497 32.7495 13.7788 32.7495 11.9645C32.7495 10.1501 31.2806 8.6792 29.4685 8.6792C27.6565 8.6792 26.1876 10.1501 26.1876 11.9645C26.1876 13.7788 27.6565 15.2497 29.4685 15.2497Z" fill="white"/>
<path d="M39.0416 15.2497C40.8536 15.2497 42.3226 13.7788 42.3226 11.9645C42.3226 10.1501 40.8536 8.6792 39.0416 8.6792C37.2296 8.6792 35.7606 10.1501 35.7606 11.9645C35.7606 13.7788 37.2296 15.2497 39.0416 15.2497Z" fill="#D7D7D7"/>
<path d="M48.6146 15.2497C50.4267 15.2497 51.8956 13.7788 51.8956 11.9645C51.8956 10.1501 50.4267 8.6792 48.6146 8.6792C46.8026 8.6792 45.3337 10.1501 45.3337 11.9645C45.3337 13.7788 46.8026 15.2497 48.6146 15.2497Z" fill="#D7D7D7"/>
<path d="M201.31 9.20605H80.7261C79.1451 9.20605 77.8635 10.4877 77.8635 12.0687V12.9967C77.8635 14.5777 79.1451 15.8594 80.7261 15.8594H201.31C202.891 15.8594 204.172 14.5777 204.172 12.9967V12.0687C204.172 10.4877 202.891 9.20605 201.31 9.20605Z" fill="#D7D7D7"/>
<path d="M271.959 205.914H7.42119C7.24701 205.914 7.10709 205.774 7.10709 205.6V23.3766C7.10709 23.2024 7.24701 23.0625 7.42119 23.0625H271.959C272.133 23.0625 272.273 23.2038 272.273 23.3766V205.599C272.273 205.773 272.132 205.913 271.959 205.913V205.914ZM7.7353 205.285H271.645V23.6921H7.7353V205.286V205.285Z" fill="black"/>
<path d="M26.0861 38.3179H43.9073C44.754 38.3179 45.4421 39.006 45.4421 39.8527V42.6539C45.4421 43.5006 44.754 44.1888 43.9073 44.1888H26.0861C25.2395 44.1888 24.5513 43.5006 24.5513 42.6539V39.8527C24.5513 39.006 25.2395 38.3179 26.0861 38.3179Z" fill="#D7D7D7"/>
<path d="M43.696 52.0944H25.8748C25.0271 52.0944 24.34 52.7815 24.34 53.6292V56.429C24.34 57.2767 25.0271 57.9638 25.8748 57.9638H43.696C44.5436 57.9638 45.2308 57.2767 45.2308 56.429V53.6292C45.2308 52.7815 44.5436 52.0944 43.696 52.0944Z" fill="white"/>
<path d="M25.8748 64.6171H43.696C44.5426 64.6171 45.2308 65.3052 45.2308 66.1519V68.9531C45.2308 69.7998 44.5426 70.488 43.696 70.488H25.8748C25.0281 70.488 24.34 69.7998 24.34 68.9531V66.1519C24.34 65.3052 25.0281 64.6171 25.8748 64.6171Z" fill="#D7D7D7"/>
<path d="M100.018 38.3179H58.0891C57.2414 38.3179 56.5543 39.005 56.5543 39.8527V42.6525C56.5543 43.5002 57.2414 44.1873 58.0891 44.1873H100.018C100.865 44.1873 101.553 43.5002 101.553 42.6525V39.8527C101.553 39.005 100.865 38.3179 100.018 38.3179Z" fill="#D7D7D7"/>
<path d="M74.8509 52.0944H57.8792C57.0316 52.0944 56.3444 52.7815 56.3444 53.6292V56.429C56.3444 57.2767 57.0316 57.9638 57.8792 57.9638H74.8509C75.6985 57.9638 76.3857 57.2767 76.3857 56.429V53.6292C76.3857 52.7815 75.6985 52.0944 74.8509 52.0944Z" fill="#D7D7D7"/>
<path d="M84.8437 64.6171H57.8792C57.0316 64.6171 56.3444 65.3042 56.3444 66.1519V68.9517C56.3444 69.7994 57.0316 70.4865 57.8792 70.4865H84.8437C85.6914 70.4865 86.3785 69.7994 86.3785 68.9517V66.1519C86.3785 65.3042 85.6914 64.6171 84.8437 64.6171Z" fill="#D7D7D7"/>
<path d="M43.9073 77.3755H26.0861C25.2385 77.3755 24.5513 78.0627 24.5513 78.9103V81.7101C24.5513 82.5578 25.2385 83.245 26.0861 83.245H43.9073C44.755 83.245 45.4421 82.5578 45.4421 81.7101V78.9103C45.4421 78.0627 44.755 77.3755 43.9073 77.3755Z" fill="#D7D7D7"/>
<path d="M58.0891 77.3755H120.032C120.879 77.3755 121.567 78.0637 121.567 78.9103V81.7116C121.567 82.5582 120.879 83.2464 120.032 83.2464H58.0891C57.2424 83.2464 56.5543 82.5582 56.5543 81.7116V78.9117C56.5543 78.0651 57.2424 77.3769 58.0891 77.3769V77.3755Z" fill="#D7D7D7"/>
<path d="M163.935 77.3755H128.045C127.197 77.3755 126.51 78.0627 126.51 78.9103V81.7101C126.51 82.5578 127.197 83.245 128.045 83.245H163.935C164.783 83.245 165.47 82.5578 165.47 81.7101V78.9103C165.47 78.0627 164.783 77.3755 163.935 77.3755Z" fill="#D7D7D7"/>
<path d="M163.935 38.3179H107.619C106.772 38.3179 106.084 39.005 106.084 39.8527V42.6525C106.084 43.5002 106.772 44.1873 107.619 44.1873H163.935C164.783 44.1873 165.47 43.5002 165.47 42.6525V39.8527C165.47 39.005 164.783 38.3179 163.935 38.3179Z" fill="#D7D7D7"/>
<path d="M134.651 52.0944H82.8634C82.0157 52.0944 81.3286 52.7815 81.3286 53.6292V56.429C81.3286 57.2767 82.0157 57.9638 82.8634 57.9638H134.651C135.498 57.9638 136.186 57.2767 136.186 56.429V53.6292C136.186 52.7815 135.498 52.0944 134.651 52.0944Z" fill="#D7D7D7"/>
<path d="M147.303 64.6171H92.8562C92.0086 64.6171 91.3214 65.3042 91.3214 66.1519V68.9517C91.3214 69.7994 92.0086 70.4865 92.8562 70.4865H147.303C148.151 70.4865 148.838 69.7994 148.838 68.9517V66.1519C148.838 65.3042 148.151 64.6171 147.303 64.6171Z" fill="#D7D7D7"/>
<path d="M44.1171 90.2981H26.296C25.4483 90.2981 24.7611 90.9853 24.7611 91.8329V94.6327C24.7611 95.4804 25.4483 96.1676 26.296 96.1676H44.1171C44.9648 96.1676 45.652 95.4804 45.652 94.6327V91.8329C45.652 90.9853 44.9648 90.2981 44.1171 90.2981Z" fill="white"/>
<path d="M44.3056 101.737H26.4844C25.6368 101.737 24.9496 102.424 24.9496 103.272V106.072C24.9496 106.919 25.6368 107.607 26.4844 107.607H44.3056C45.1533 107.607 45.8404 106.919 45.8404 106.072V103.272C45.8404 102.424 45.1533 101.737 44.3056 101.737Z" fill="#D7D7D7"/>
<path d="M120.243 90.2981H58.3005C57.4528 90.2981 56.7656 90.9853 56.7656 91.8329V94.6327C56.7656 95.4804 57.4528 96.1676 58.3005 96.1676H120.243C121.091 96.1676 121.778 95.4804 121.778 94.6327V91.8329C121.778 90.9853 121.091 90.2981 120.243 90.2981Z" fill="#D7D7D7"/>
<path d="M85.4533 101.737H58.4889C57.6412 101.737 56.954 102.424 56.954 103.272V106.072C56.954 106.919 57.6412 107.607 58.4889 107.607H85.4533C86.301 107.607 86.9882 106.919 86.9882 106.072V103.272C86.9882 102.424 86.301 101.737 85.4533 101.737Z" fill="#D7D7D7"/>
<path d="M128.254 90.2981H164.145C164.992 90.2981 165.68 90.9863 165.68 91.8329V94.6342C165.68 95.4808 164.992 96.169 164.145 96.169H128.254C127.408 96.169 126.72 95.4808 126.72 94.6342V91.8329C126.72 90.9863 127.408 90.2981 128.254 90.2981Z" fill="#D7D7D7"/>
<path d="M147.913 101.737H93.4659C92.6182 101.737 91.931 102.424 91.931 103.272V106.072C91.931 106.919 92.6182 107.607 93.4659 107.607H147.913C148.761 107.607 149.448 106.919 149.448 106.072V103.272C149.448 102.424 148.761 101.737 147.913 101.737Z" fill="#D7D7D7"/>
<path d="M32.6224 174.118H24.9497V189.281H32.6224V174.118Z" fill="#D7D7D7"/>
<path d="M44.6998 166.598H37.027V189.281H44.6998V166.598Z" fill="#D7D7D7"/>
<path d="M56.7771 174.183H49.1044V189.282H56.7771V174.183Z" fill="white"/>
<path d="M68.8544 158.141H61.1817V189.281H68.8544V158.141Z" fill="#D7D7D7"/>
<path d="M80.9304 150.989H73.2576V189.281H80.9304V150.989Z" fill="white"/>
<path d="M93.0077 155.843H85.335V189.281H93.0077V155.843Z" fill="#D7D7D7"/>
<path d="M105.085 166.598H97.4123V189.281H105.085V166.598Z" fill="#D7D7D7"/>
<path d="M117.162 134.25H109.49V189.281H117.162V134.25Z" fill="white"/>
<path d="M129.24 143.626H121.567V189.281H129.24V143.626Z" fill="#D7D7D7"/>
<path d="M141.316 149.628H133.643V189.282H141.316V149.628Z" fill="#D7D7D7"/>
<path d="M153.393 172.885H145.72V189.282H153.393V172.885Z" fill="#D7D7D7"/>
<path d="M165.47 152.921H157.797V189.282H165.47V152.921Z" fill="#D7D7D7"/>
<path d="M204.452 154.84C190.987 154.857 180.018 143.917 180 130.452C179.991 123.928 182.523 117.793 187.129 113.175C191.736 108.557 197.865 106.009 204.387 106C210.91 105.991 217.046 108.523 221.664 113.129C226.282 117.736 228.83 123.865 228.839 130.387C228.839 130.564 228.837 130.739 228.834 130.916C228.569 144.136 217.739 154.821 204.451 154.839L204.452 154.84ZM183.118 130.401C183.132 142.194 192.709 151.775 204.465 151.758C216.222 151.742 225.773 142.134 225.759 130.342C225.744 118.55 216.167 108.969 204.411 108.985C198.716 108.993 193.365 111.225 189.343 115.27C185.432 119.204 183.233 124.395 183.122 129.932C183.119 130.088 183.118 130.245 183.118 130.401Z" fill="black"/>
<path d="M253.495 169.433C253.849 168.94 253.736 168.254 253.244 167.899L222.456 146.058L221.174 147.843L251.961 169.684C252.454 170.038 253.14 169.925 253.495 169.433Z" fill="black"/>
</svg>
