<svg width="345" height="154" viewBox="0 0 345 154" fill="none" xmlns="http://www.w3.org/2000/svg">
<path d="M34.2951 59.5732H26.3365V78.1209H34.2951V59.5732Z" fill="#070707"/>
<path d="M49.3264 47.5807H41.3678V78.1234H49.3264V47.5807Z" fill="#070707"/>
<path d="M64.3601 53.3219H56.4015V78.1209H64.3601V53.3219Z" fill="#070707"/>
<path d="M79.3936 44.3927H71.4351V78.1208H79.3936V44.3927Z" fill="#070707"/>
<path d="M94.4274 36.7527H86.4689V78.1209H94.4274V36.7527Z" fill="#070707"/>
<path d="M109.461 34.8364H101.503V78.1233H109.461V34.8364Z" fill="#070707"/>
<path d="M193.85 64.5455H121.954V89.6058H193.85V64.5455Z" fill="#DFDFE4"/>
<path d="M134.16 86.1342C139.145 86.1342 143.187 82.0785 143.187 77.0756C143.187 72.0727 139.145 68.0171 134.16 68.0171C129.175 68.0171 125.134 72.0727 125.134 77.0756C125.134 82.0785 129.175 86.1342 134.16 86.1342Z" fill="white"/>
<path d="M133.69 80.1889C133.399 80.1889 133.123 80.062 132.931 79.838L131.398 78.0437C131.202 77.8123 131.229 77.4664 131.46 77.2698C131.689 77.0732 132.038 77.1005 132.234 77.3295L133.673 79.0143L136.4 73.9624C136.545 73.6961 136.878 73.5966 137.144 73.7409C137.411 73.8852 137.51 74.2187 137.366 74.485L134.569 79.6638C134.412 79.955 134.123 80.1466 133.795 80.1814C133.76 80.1864 133.725 80.1864 133.69 80.1864V80.1889Z" fill="black"/>
<path d="M189.134 73.3502H146.912C146.609 73.3502 146.362 73.1038 146.362 72.8002C146.362 72.4966 146.609 72.2502 146.912 72.2502H189.134C189.438 72.2502 189.684 72.4966 189.684 72.8002C189.684 73.1038 189.438 73.3502 189.134 73.3502Z" fill="white"/>
<path d="M179.505 81.901H146.91C146.606 81.901 146.36 81.6546 146.36 81.351C146.36 81.0474 146.606 80.801 146.91 80.801H179.505C179.809 80.801 180.055 81.0474 180.055 81.351C180.055 81.6546 179.809 81.901 179.505 81.901Z" fill="white"/>
<path d="M168.332 77.6903H146.912C146.609 77.6903 146.362 77.4439 146.362 77.1403C146.362 76.8367 146.609 76.5903 146.912 76.5903H168.332C168.635 76.5903 168.882 76.8367 168.882 77.1403C168.882 77.4439 168.635 77.6903 168.332 77.6903Z" fill="white"/>
<path d="M193.85 100.956H121.954V126.017H193.85V100.956Z" fill="#DFDFE4"/>
<path d="M134.16 122.545C139.145 122.545 143.187 118.489 143.187 113.487C143.187 108.484 139.145 104.428 134.16 104.428C129.175 104.428 125.134 108.484 125.134 113.487C125.134 118.489 129.175 122.545 134.16 122.545Z" fill="white"/>
<path d="M133.69 116.602C133.399 116.602 133.123 116.475 132.931 116.251L131.398 114.457C131.202 114.226 131.229 113.88 131.46 113.683C131.689 113.487 132.038 113.514 132.234 113.743L133.673 115.428L136.4 110.376C136.545 110.11 136.878 110.01 137.144 110.154C137.411 110.299 137.51 110.632 137.366 110.898L134.569 116.077C134.412 116.368 134.123 116.56 133.795 116.595C133.76 116.6 133.725 116.6 133.69 116.6V116.602Z" fill="black"/>
<path d="M189.134 109.761H146.912C146.609 109.761 146.362 109.515 146.362 109.211C146.362 108.908 146.609 108.661 146.912 108.661H189.134C189.438 108.661 189.684 108.908 189.684 109.211C189.684 109.515 189.438 109.761 189.134 109.761Z" fill="white"/>
<path d="M179.505 118.312H146.91C146.606 118.312 146.36 118.066 146.36 117.762C146.36 117.458 146.606 117.212 146.91 117.212H179.505C179.809 117.212 180.055 117.458 180.055 117.762C180.055 118.066 179.809 118.312 179.505 118.312Z" fill="white"/>
<path d="M168.332 114.101H146.912C146.609 114.101 146.362 113.855 146.362 113.551C146.362 113.248 146.609 113.001 146.912 113.001H168.332C168.635 113.001 168.882 113.248 168.882 113.551C168.882 113.855 168.635 114.101 168.332 114.101Z" fill="white"/>
<path d="M193.85 28.1346H121.954V53.1949H193.85V28.1346Z" fill="#DFDFE4"/>
<path d="M134.16 49.7233C139.145 49.7233 143.187 45.6676 143.187 40.6647C143.187 35.6619 139.145 31.6062 134.16 31.6062C129.175 31.6062 125.134 35.6619 125.134 40.6647C125.134 45.6676 129.175 49.7233 134.16 49.7233Z" fill="white"/>
<path d="M133.69 43.778C133.399 43.778 133.123 43.6511 132.931 43.4271L131.398 41.6328C131.202 41.4014 131.229 41.0555 131.46 40.8589C131.689 40.6623 132.038 40.6897 132.234 40.9186L133.673 42.6034L136.4 37.5515C136.545 37.2852 136.878 37.1857 137.144 37.33C137.411 37.4744 137.51 37.8078 137.366 38.0741L134.569 43.2529C134.412 43.5441 134.123 43.7357 133.795 43.7705C133.76 43.7755 133.725 43.7755 133.69 43.7755V43.778Z" fill="black"/>
<path d="M170.863 36.7203H147.273C146.969 36.7203 146.723 36.474 146.723 36.1703C146.723 35.8667 146.969 35.6204 147.273 35.6204H170.863C171.166 35.6204 171.413 35.8667 171.413 36.1703C171.413 36.474 171.166 36.7203 170.863 36.7203Z" fill="white"/>
<path d="M189.495 41.0605H147.273C146.969 41.0605 146.723 40.8142 146.723 40.5106C146.723 40.2069 146.969 39.9606 147.273 39.9606H189.495C189.798 39.9606 190.045 40.2069 190.045 40.5106C190.045 40.8142 189.798 41.0605 189.495 41.0605Z" fill="white"/>
<path d="M177.119 45.7042H147.271C146.967 45.7042 146.721 45.4578 146.721 45.1542C146.721 44.8506 146.967 44.6042 147.271 44.6042H177.119C177.423 44.6042 177.669 44.8506 177.669 45.1542C177.669 45.4578 177.423 45.7042 177.119 45.7042Z" fill="white"/>
<path d="M109.812 90.5216H27.0433C26.7397 90.5216 26.4933 90.2752 26.4933 89.9716C26.4933 89.668 26.7397 89.4216 27.0433 89.4216H109.812C110.116 89.4216 110.362 89.668 110.362 89.9716C110.362 90.2752 110.116 90.5216 109.812 90.5216Z" fill="black"/>
<path d="M90.9408 112.797H27.0433C26.7397 112.797 26.4933 112.551 26.4933 112.247C26.4933 111.944 26.7397 111.697 27.0433 111.697H90.9408C91.2444 111.697 91.4908 111.944 91.4908 112.247C91.4908 112.551 91.2444 112.797 90.9408 112.797Z" fill="black"/>
<path d="M69.0336 101.83H27.0433C26.7397 101.83 26.4933 101.583 26.4933 101.28C26.4933 100.976 26.7397 100.73 27.0433 100.73H69.0336C69.3372 100.73 69.5836 100.976 69.5836 101.28C69.5836 101.583 69.3372 101.83 69.0336 101.83Z" fill="black"/>
<path d="M260.113 88.9058H252V121.742H260.113V88.9058Z" fill="#D4D0EB"/>
<path d="M276.203 98.9781H268.09V121.744H276.203V98.9781Z" fill="#D4D0EB"/>
<path d="M292.29 105.668H284.177V121.747H292.29V105.668Z" fill="#D9DDD2"/>
<path d="M308.38 98.9781H300.266V121.744H308.38V98.9781Z" fill="#D4D0EB"/>
<path d="M324.467 92.5847H316.354V121.742H324.467V92.5847Z" fill="#A6A8A7"/>
<path d="M305.833 79.225L288.251 62.6804L305.833 46.1357C315.542 55.2723 315.542 70.086 305.833 79.225Z" fill="#D9DDD2"/>
<path d="M309.062 38.8518L291.481 55.3964V32C298.346 32 304.562 34.619 309.062 38.8518Z" fill="#A6A8A7"/>
<path d="M288.254 62.6804L305.835 79.225C296.126 88.3615 280.384 88.3615 270.672 79.225C260.963 70.0884 260.963 55.2747 270.672 46.1357C275.528 41.5663 281.891 39.2839 288.254 39.2839V62.6804Z" fill="#D4D0EB"/>
<rect x="0.5" y="0.5" width="219" height="153" rx="9.5" stroke="#555555"/>
<rect x="231.5" y="0.5" width="113" height="153" rx="9.5" stroke="#555555"/>
</svg>
