<svg width="1442" height="205" viewBox="0 0 1442 205" fill="none" xmlns="http://www.w3.org/2000/svg">
<path d="M1385.38 42.9719C1421.13 42.9719 1441.84 59.5399 1441.84 95.0739V162H1410.01V147.394C1403.69 158.076 1391.48 163.744 1374.26 163.744C1346.79 163.744 1330.44 148.484 1330.44 128.21C1330.44 107.5 1345.05 93.1119 1380.8 93.1119H1407.83C1407.83 78.5059 1399.11 70.0039 1380.8 70.0039C1368.38 70.0039 1355.51 74.1459 1347.01 80.9039L1334.8 57.1419C1347.67 47.9859 1366.63 42.9719 1385.38 42.9719ZM1382.76 140.854C1394.1 140.854 1403.91 135.622 1407.83 124.94V112.95H1384.51C1368.59 112.95 1363.58 118.836 1363.58 126.684C1363.58 135.186 1370.77 140.854 1382.76 140.854Z" fill="#DFDFE4"/>
<path d="M1265.17 42.9719C1292.86 42.9719 1313.79 59.1039 1313.79 94.8559V162H1279.78V100.088C1279.78 81.1219 1271.06 72.4019 1256.02 72.4019C1239.67 72.4019 1227.89 82.4299 1227.89 104.012V162H1193.89V0.243896H1227.89V56.9239C1237.05 47.7679 1250.13 42.9719 1265.17 42.9719Z" fill="#DFDFE4"/>
<path d="M1119.24 42.9719C1152.15 42.9719 1177.66 66.5159 1177.66 103.358C1177.66 140.2 1152.15 163.744 1119.24 163.744C1104.63 163.744 1092.64 159.166 1083.92 149.574V204.292H1049.91V44.7159H1082.39V58.2319C1090.9 47.9859 1103.54 42.9719 1119.24 42.9719ZM1113.35 135.84C1130.35 135.84 1143.22 123.632 1143.22 103.358C1143.22 83.0839 1130.35 70.8759 1113.35 70.8759C1096.35 70.8759 1083.48 83.0839 1083.48 103.358C1083.48 123.632 1096.35 135.84 1113.35 135.84Z" fill="#DFDFE4"/>
<path d="M990.883 162V0.243896H1024.89V162H990.883Z" fill="#DFDFE4"/>
<path d="M946.928 162L933.412 129.3H862.562L849.046 162H812.858L880.874 9.3999H915.754L983.988 162H946.928ZM873.898 102.486H922.294L898.096 44.0619L873.898 102.486Z" fill="#DFDFE4"/>
<path d="M705.504 163.744C685.666 163.744 665.61 158.294 654.71 151.1L666.046 126.684C676.51 133.442 692.424 138.02 706.812 138.02C722.508 138.02 728.394 133.878 728.394 127.338C728.394 108.154 657.544 127.774 657.544 80.9039C657.544 58.6679 677.6 42.9719 711.826 42.9719C727.958 42.9719 745.834 46.6779 756.952 53.2179L745.616 77.4159C734.062 70.8759 722.508 68.6959 711.826 68.6959C696.566 68.6959 690.026 73.4919 690.026 79.5959C690.026 99.6519 760.876 80.2499 760.876 126.466C760.876 148.266 740.602 163.744 705.504 163.744Z" fill="#DFDFE4"/>
<path d="M644.339 132.352L653.495 156.332C646.519 161.346 636.273 163.744 625.809 163.744C598.123 163.744 581.991 149.574 581.991 121.67V73.4919H563.897V47.3319H581.991V18.7739H615.999V47.3319H645.211V73.4919H615.999V121.234C615.999 131.262 621.449 136.712 630.605 136.712C635.619 136.712 640.633 135.186 644.339 132.352Z" fill="#DFDFE4"/>
<path d="M561.748 103.794C561.748 106.41 561.312 110.116 561.094 112.95H472.368C475.638 127.556 488.064 136.494 505.94 136.494C518.366 136.494 527.304 132.788 535.37 125.158L553.464 144.778C542.564 157.204 526.214 163.744 505.068 163.744C464.52 163.744 438.142 138.238 438.142 103.358C438.142 68.2599 464.956 42.9719 500.708 42.9719C535.152 42.9719 561.748 66.0799 561.748 103.794ZM500.926 68.6959C485.448 68.6959 474.33 78.0699 471.932 93.1119H529.702C527.304 78.2879 516.186 68.6959 500.926 68.6959Z" fill="#DFDFE4"/>
<path d="M430.761 103.794C430.761 106.41 430.325 110.116 430.107 112.95H341.381C344.651 127.556 357.077 136.494 374.953 136.494C387.379 136.494 396.317 132.788 404.383 125.158L422.477 144.778C411.577 157.204 395.227 163.744 374.081 163.744C333.533 163.744 307.155 138.238 307.155 103.358C307.155 68.2599 333.969 42.9719 369.721 42.9719C404.165 42.9719 430.761 66.0799 430.761 103.794ZM369.939 68.6959C354.461 68.6959 343.343 78.0699 340.945 93.1119H398.715C396.317 78.2879 385.199 68.6959 369.939 68.6959Z" fill="#DFDFE4"/>
<path d="M262.928 60.1939C271.212 48.8579 285.164 42.9719 303.258 42.9719V74.3639C300.424 74.1459 298.244 73.9279 295.628 73.9279C276.88 73.9279 264.454 84.1739 264.454 106.628V162H230.446V44.7159H262.928V60.1939Z" fill="#DFDFE4"/>
<path d="M208.74 132.352L217.896 156.332C210.92 161.346 200.674 163.744 190.21 163.744C162.524 163.744 146.392 149.574 146.392 121.67V73.4919H128.298V47.3319H146.392V18.7739H180.4V47.3319H209.612V73.4919H180.4V121.234C180.4 131.262 185.85 136.712 195.006 136.712C200.02 136.712 205.034 135.186 208.74 132.352Z" fill="#DFDFE4"/>
<path d="M62.3099 164.616C38.1119 164.616 13.6959 157.422 0.179932 146.958L12.1699 120.362C25.0319 129.736 44.2159 136.276 62.5279 136.276C83.4559 136.276 91.9579 129.3 91.9579 119.926C91.9579 91.3679 3.23193 110.988 3.23193 54.3079C3.23193 28.3659 24.1599 6.78394 67.5419 6.78394C86.7259 6.78394 106.346 11.3619 120.516 20.2999L109.616 47.1139C95.4459 39.0479 80.8399 35.1239 67.3239 35.1239C46.3959 35.1239 38.3299 42.9719 38.3299 52.5639C38.3299 80.6859 127.056 61.2839 127.056 117.31C127.056 142.816 105.91 164.616 62.3099 164.616Z" fill="#DFDFE4"/>
</svg>
